<svg width="200" height="200" viewBox="0 0 200 200" fill="none" xmlns="http://www.w3.org/2000/svg">
<g clip-path="url(#clip0_129_939)">
<path d="M52.2255 107.52H74.1468V197.774C74.1468 199.556 75.5905 201 77.3723 201H114.541C116.322 201 117.766 199.556 117.766 197.774V107.945H142.966C144.605 107.945 145.984 106.715 146.171 105.088L149.998 71.8606C150.103 70.9464 149.814 70.031 149.202 69.3452C148.59 68.6587 147.714 68.2658 146.794 68.2658H117.767V47.4374C117.767 41.1587 121.148 37.9748 127.816 37.9748C128.766 37.9748 146.794 37.9748 146.794 37.9748C148.576 37.9748 150.02 36.5303 150.02 34.749V4.24968C150.02 2.46774 148.576 1.02387 146.794 1.02387H120.639C120.454 1.01484 120.045 1 119.441 1C114.902 1 99.1278 1.89097 86.6669 13.3555C72.8604 26.06 74.7796 41.2716 75.2383 43.909V68.2652H52.2255C50.4437 68.2652 49 69.709 49 71.491V104.294C49 106.075 50.4437 107.52 52.2255 107.52Z" fill="white"/>
</g>
<defs>
<clipPath id="clip0_129_939">
<rect width="200" height="200" fill="white"/>
</clipPath>
</defs>
</svg>
