<svg width="200" height="200" viewBox="0 0 200 200" fill="none" xmlns="http://www.w3.org/2000/svg">
<g clip-path="url(#clip0_129_940)">
<path d="M195.018 29.0766C192.986 23.8137 189.874 19.0349 185.883 15.0478C181.892 11.0607 177.11 7.95391 171.845 5.92743C164.595 3.24236 156.938 1.82316 149.208 1.7318C136.353 1.14636 132.499 1 99.9336 1C67.3687 1 63.5145 1.14636 50.6593 1.7318C42.9208 1.82037 35.2552 3.23961 27.998 5.92743C22.7351 7.95946 17.9563 11.0713 13.9692 15.0626C9.98213 19.0538 6.8753 23.836 4.84882 29.101C2.16375 36.3505 0.74456 44.0076 0.653197 51.7379C0.0677602 64.5931 -0.0786133 68.4473 -0.0786133 101.012C-0.0786133 133.577 0.0677602 137.431 0.653197 150.286C0.741768 158.025 2.161 165.691 4.84882 172.948C6.88084 178.211 9.99271 182.99 13.984 186.977C17.9752 190.964 22.7574 194.07 28.0224 196.097C35.2719 198.782 42.929 200.201 50.6593 200.293C63.5145 200.878 67.3687 201 99.9336 201C132.499 201 136.353 200.878 149.208 200.268C156.945 200.187 164.61 198.776 171.869 196.097C177.132 194.065 181.911 190.953 185.898 186.962C189.885 182.971 192.992 178.188 195.018 172.923C197.703 165.674 199.123 158.017 199.214 150.286C199.799 137.431 199.921 133.577 199.921 101.012C199.921 68.4473 199.799 64.5931 199.19 51.7379C199.109 44.0008 197.698 36.3353 195.018 29.0766ZM99.9336 163.654C87.5442 163.654 75.4331 159.98 65.1317 153.097C54.8303 146.214 46.8013 136.43 42.0601 124.984C37.3189 113.538 36.0784 100.943 38.4954 88.7914C40.9125 76.6401 46.8785 65.4784 55.6392 56.7178C64.3998 47.9571 75.5615 41.9911 87.7128 39.5741C99.8641 37.157 112.459 38.3975 123.906 43.1387C135.352 47.88 145.135 55.9089 152.018 66.2103C158.902 76.5117 162.575 88.6228 162.575 101.012C162.575 117.626 155.976 133.559 144.228 145.307C132.48 157.054 116.547 163.654 99.9336 163.654ZM165.039 50.5426C162.144 50.5426 159.315 49.6842 156.908 48.076C154.501 46.4678 152.625 44.182 151.517 41.5076C150.409 38.8333 150.12 35.8905 150.684 33.0514C151.249 30.2123 152.643 27.6044 154.69 25.5575C156.737 23.5107 159.345 22.1167 162.184 21.552C165.023 20.9873 167.966 21.2771 170.64 22.3849C173.314 23.4926 175.6 25.3685 177.208 27.7754C178.817 30.1823 179.675 33.012 179.675 35.9067C179.675 39.7884 178.133 43.5111 175.388 46.2559C172.643 49.0006 168.921 50.5426 165.039 50.5426ZM140.597 101.012C140.597 109.055 138.212 116.917 133.744 123.604C129.276 130.291 122.925 135.503 115.495 138.58C108.065 141.658 99.8885 142.463 92.0005 140.894C84.1126 139.325 76.8671 135.452 71.1802 129.766C65.4933 124.079 61.6204 116.833 60.0514 108.945C58.4824 101.057 59.2877 92.8812 62.3654 85.4509C65.4431 78.0207 70.6551 71.6699 77.3422 67.2017C84.0292 62.7336 91.8911 60.3487 99.9336 60.3487C110.718 60.3487 121.061 64.6329 128.687 72.2588C136.313 79.8847 140.597 90.2276 140.597 101.012Z" fill="white"/>
</g>
<defs>
<clipPath id="clip0_129_940">
<rect width="200" height="200" fill="white"/>
</clipPath>
</defs>
</svg>
