<svg width="5999" height="683" viewBox="0 0 5999 683" fill="none" xmlns="http://www.w3.org/2000/svg">
<g clip-path="url(#clip0_381_2)">
<path fill-rule="evenodd" clip-rule="evenodd" d="M339.59 0H0V6.37158C44.611 7.28179 56.4466 35.4987 56.4466 75.5484V607.118C56.4466 647.168 44.611 675.385 0 677.205V682.667H105V12H132V682.667H215.771V677.205C171.161 675.385 159.325 647.168 159.325 607.118V11.8329H254.92C346.873 11.8329 415.155 57.344 415.155 153.828C415.155 209.351 370.544 260.324 330.485 296.732C329.139 297.969 327.8 299.195 326.472 300.413C273.013 349.408 235.084 384.17 279.501 459.662L402.409 656.27C416.976 680.846 438.826 682.667 465.229 682.667H568.107V677.205C543.526 676.295 528.959 665.372 515.302 643.527L350.515 380.473C337.769 358.628 324.112 327.68 341.411 304.014C350.515 291.271 366.903 283.989 385.111 277.618C451.572 257.593 516.213 229.376 518.034 147.456C518.944 44.6009 432.453 0 339.59 0Z" fill="white"/>
<path fill-rule="evenodd" clip-rule="evenodd" d="M1062.67 0H588.445V5.4614C633.046 6.37161 644.879 35.4989 644.879 75.5488V607.121C644.879 647.171 633.046 676.298 588.445 677.209V682.67H694.998V12H721.998V682.67H1082.7L1127.3 568.892H1121.84C1070.87 648.992 985.304 670.837 894.281 670.837H746.825V336.784C763.209 313.118 785.054 307.657 814.182 318.579C830.27 324.888 847.342 336.008 865.284 347.694C899.113 369.728 936.037 393.777 975.292 391.397C1015.34 389.577 1048.11 355.899 1057.21 287.632L1051.75 286.721C1036.28 326.771 992.586 325.861 963.459 318.579C946.178 314.181 929.982 306.637 913.785 299.092C883.058 284.78 852.328 270.467 814.182 277.619C783.234 282.17 766.85 295.824 746.825 319.49V11.833H874.256C965.279 11.833 1040.83 33.6784 1092.71 113.778H1098.17L1062.67 0Z" fill="white"/>
<path d="M1614 497.894V76.4591C1614 36.4091 1590.34 7.28183 1544.82 5.4614V0H1694.1V5.4614C1648.59 7.28183 1625.84 36.4091 1625.84 76.4591V682.67H1614L1209.86 79.1897V607.121C1209.86 647.171 1234.44 675.388 1279.04 676.298V682.67H1130.67V676.298C1175.27 675.388 1198.03 647.171 1198.03 607.121V61.8954L1186.2 43.6909C1171.63 20.025 1160.71 6.37161 1130.67 5.4614V0H1280.86L1614 497.894Z" fill="white"/>
<path fill-rule="evenodd" clip-rule="evenodd" d="M1947.71 11.833C2136.13 11.833 2195.29 174.763 2195.29 342.245C2195.29 508.817 2136.13 670.837 1947.71 670.837H1873.07V11.833H1947.71ZM1713.79 5.4614C1758.39 6.37161 1770.22 36.4091 1770.22 76.4591V607.121C1770.22 647.171 1758.39 676.298 1713.79 677.209V682.67H1821V12H1848V682.67H2000.51C2206.22 682.67 2298.15 567.981 2298.15 342.245C2298.15 115.599 2206.22 0 2000.51 0H1713.79V5.4614Z" fill="white"/>
<path fill-rule="evenodd" clip-rule="evenodd" d="M2812.02 0H2337.79V5.4614C2382.39 6.37161 2394.22 35.4989 2394.22 75.5488V607.121C2394.22 647.171 2382.39 676.298 2337.79 677.209V682.67H2444V12H2471V682.67H2832.04L2876.64 568.892H2871.18C2820.21 648.992 2734.65 670.837 2643.62 670.837H2496.17V336.784C2512.55 313.118 2534.4 307.657 2563.53 318.579C2579.61 324.888 2596.69 336.008 2614.63 347.694C2648.46 369.728 2685.38 393.777 2724.64 391.397C2764.69 389.577 2797.45 355.899 2806.56 287.632L2801.09 286.721C2785.62 326.771 2741.93 325.861 2712.8 318.579C2695.52 314.181 2679.33 306.637 2663.13 299.092C2632.4 284.78 2601.67 270.467 2563.53 277.619C2532.58 282.17 2516.19 295.824 2496.17 319.49V11.833H2623.6C2714.62 11.833 2790.17 33.6784 2842.05 113.778H2847.52L2812.02 0Z" fill="white"/>
<path d="M3408.15 44.6011L3031.32 669.927H3234.3C3324.41 669.927 3409.97 648.081 3460.95 568.892H3467.32L3421.81 682.67H2909.35V676.298L3307.12 11.833H3165.12C3075.01 11.833 2997.64 34.5887 2946.67 112.868H2941.21L2976.7 0H3467.32V5.4614C3438.19 6.37161 3422.72 17.2944 3408.15 44.6011Z" fill="white"/>
<path d="M3851.91 617.134L4041.24 54.6136C4046.7 42.7807 4045.79 29.1273 4037.6 20.025C4027.59 7.28183 4007.56 5.4614 3992.09 5.4614V0H4112.24V5.4614C4082.2 6.37161 4066.73 18.2046 4057.63 46.4215L3858.29 635.338L3873.76 682.67H3793.66C3776.37 682.67 3762.71 673.568 3757.25 658.094L3552.45 50.9727C3542.44 21.8455 3529.69 6.37161 3496.02 5.4614V0H3702.64V5.4614C3671.69 6.37161 3649.84 19.1148 3661.68 52.7932L3851.91 617.134Z" fill="white"/>
<path d="M4438.65 0C4627.06 0 4779.98 152.008 4779.98 340.425C4779.98 529.752 4627.06 682.67 4438.65 682.67C4250.23 682.67 4097.31 529.752 4097.31 340.425C4097.31 152.008 4250.23 0 4438.65 0ZM4534.22 657.184C4653.46 620.775 4708.98 450.562 4655.28 275.799C4603.4 101.945 4464.13 -10.0125 4343.07 25.4863C4223.83 60.9852 4169.22 231.198 4222.01 406.871C4273.9 580.725 4413.16 692.682 4534.22 657.184Z" fill="white"/>
<path fill-rule="evenodd" clip-rule="evenodd" d="M5124.46 682.67C5258.26 682.67 5366.58 600.75 5366.58 432.358V75.5488C5366.58 36.4091 5378.41 7.28183 5423.02 6.37161V0H5297.4V6.37161C5342.01 7.28183 5354.75 36.4091 5354.75 75.5488V428.717C5354.75 507.906 5326.53 577.994 5268.28 617.134C5190 669.017 5056.19 659.914 5007.04 570.712C4987.02 534.303 4980.65 485.151 4980.65 425.986V75.5488C4980.65 36.4091 4992.48 7.28183 5037.08 6.37161V0H4821.36V6.37161C4866.87 7.28183 4877.79 36.4091 4877.79 75.5488V418.704C4877.79 492.872 4897.06 550.7 4929 593.076V12H4956V622.678C5000.6 663.151 5060.3 682.67 5124.46 682.67Z" fill="white"/>
<path d="M5941.75 612.583C5884.41 665.376 5784.28 682.67 5708.73 682.67C5655.03 682.67 5599.51 675.388 5551.27 653.543C5506.66 634.428 5453.87 594.378 5448.41 546.136C5444.77 512.458 5462.06 481.51 5498.47 476.959C5551.27 470.587 5566.74 511.547 5576.75 552.508C5600.42 648.992 5684.16 678.119 5777.91 664.465C5825.24 658.094 5874.4 639.889 5905.34 605.301C5965.42 541.585 5932.65 452.383 5858.01 414.153C5749.69 358.629 5603.15 372.283 5509.4 300.375C5439.31 247.582 5432.03 139.265 5496.65 73.7284C5549.45 20.025 5642.29 0 5716.02 0C5795.21 0 5908.98 24.5761 5962.69 86.4715C5976.34 101.945 5985.44 124.701 5987.26 146.546C5988.17 179.315 5972.7 203.891 5937.2 208.442C5889.87 214.814 5875.31 181.135 5866.2 142.906C5841.63 48.242 5766.99 4.55113 5667.77 16.3841C5628.63 20.9352 5582.21 34.5887 5549.45 61.8954C5494.83 104.676 5484.82 182.956 5552.18 220.275C5641.38 269.427 5780.64 263.055 5879.86 305.836C6010.93 361.36 6037.33 524.291 5941.75 612.583Z" fill="white"/>
</g>
<defs>
<clipPath id="clip0_381_2">
<rect width="5999.01" height="682.67" fill="white"/>
</clipPath>
</defs>
</svg>
